<svg id="Layer_2" data-name="Layer 2" xmlns="http://www.w3.org/2000/svg" width="1800" height="1800" viewBox="0 0 1800 1800"><title>Artboard 4</title><path d="M900,393a481.1,481.1,0,1,1-188,37.9A479.9,479.9,0,0,1,900,393m0-120c-333,0-603,270-603,603s270,603,603,603,603-270,603-603S1233,273,900,273Z" fill="#c1272d"/><path d="M632,583.4h68.2V897.7h1.5l61.7-154.6h63.9l-66,163.3,74.8,201H763.4L701.7,920.2h-1.5v187.3H632Z" fill="#212121"/><path d="M866.4,743.1h63.9v30.5h1.5c10.9-18.9,36.3-34.8,64.6-34.8,23.2,0,45,11.6,59.5,34.8,10.9-18.1,29.8-34.8,60.2-34.8,37,0,66.8,18.1,66.8,71.9v296.9h-68.2V823.6c0-18.9-5.1-32.7-26.1-32.7-16.7,0-29.8,10.2-29.8,38.5v278H990.6V823.6c0-18.9-5.1-32.7-26.1-32.7-16.7,0-29.8,10.2-29.8,38.5v278H866.4Z" fill="#212121"/></svg>