<?xml version="1.0" encoding="utf-8"?>
<!-- Generator: Adobe Illustrator 21.1.0, SVG Export Plug-In . SVG Version: 6.00 Build 0)  -->
<svg version="1.1" id="Layer_2" xmlns="http://www.w3.org/2000/svg" xmlns:xlink="http://www.w3.org/1999/xlink" x="0px" y="0px"
	 viewBox="0 0 1800 1800" style="enable-background:new 0 0 1800 1800;" xml:space="preserve">
<style type="text/css">
	.st0{fill:#F2F2F2;}
</style>
<title>Artboard 5</title>
<path class="st0" d="M900,393c265.7,0.5,480.7,216.2,480.3,481.9s-216.2,480.7-481.9,480.3c-265.7-0.5-480.7-216.2-480.3-481.9
	C418.4,680.2,534.1,506,712,430.9C771.5,405.7,835.4,392.9,900,393 M900,273c-333,0-603,270-603,603s270,603,603,603
	s603-270,603-603S1233,273,900,273z"/>
<path class="st0" d="M632,583.4h68.2v314.3h1.5l61.7-154.6h63.9l-66,163.3l74.8,201h-72.7l-61.7-187.2h-1.5v187.3H632V583.4z"/>
<path class="st0" d="M866.4,743.1h63.9v30.5h1.5c10.9-18.9,36.3-34.8,64.6-34.8c23.2,0,45,11.6,59.5,34.8
	c10.9-18.1,29.8-34.8,60.2-34.8c37,0,66.8,18.1,66.8,71.9v296.9h-68.2v-284c0-18.9-5.1-32.7-26.1-32.7c-16.7,0-29.8,10.2-29.8,38.5
	v278h-68.2V823.6c0-18.9-5.1-32.7-26.1-32.7c-16.7,0-29.8,10.2-29.8,38.5v278h-68.3V743.1z"/>
</svg>
