<svg xmlns="http://www.w3.org/2000/svg" width="1352" height="91.2" viewBox="0 0 1352 91.2"><title>title-1</title><g id="Layer_2" data-name="Layer 2"><g id="Layer_1-2" data-name="Layer 1"><path d="M0,1.5H41C51,1.5,59,4.3,64,9.3a20.2,20.2,0,0,1,6,15v.3c0,10-5.3,15.5-11.6,19C68.7,47.5,75,53.4,75,65.3v.3c0,16.1-13.1,24.2-33,24.2H0ZM50.8,27.6c0-5.8-4.5-9.1-12.7-9.1H18.9V37.2H36.8c8.6,0,14-2.8,14-9.3ZM41.3,53.3H18.9V72.7H42c8.6,0,13.7-3,13.7-9.6v-.3C55.7,57,51.3,53.3,41.3,53.3Z" fill="#f1f2f2"/><path d="M127.1,1.5h19.4V89.7H127.1Z" fill="#f1f2f2"/><path d="M224.4,19.4H197.6V1.5h73.1V19.4H243.8V89.7H224.4Z" fill="#f1f2f2"/><path d="M341.3,19.4H314.5V1.5h73.1V19.4H360.7V89.7H341.3Z" fill="#f1f2f2"/><path d="M437.7,1.5h66.5V18.8H457V36.7h41.6V53.9H457V72.5h47.9V89.7H437.7Z" fill="#f1f2f2"/><path d="M557.4,1.5h40.3c11.2,0,19.9,3.2,25.7,8.9S631,22.3,631,30.6v.3c0,14.2-7.7,23.2-18.9,27.3l21.5,31.5H611L592.1,61.5H576.8V89.7H557.4Zm39.1,42.8c9.5,0,14.9-5,14.9-12.5v-.3c0-8.3-5.8-12.6-15.2-12.6H576.8V44.4Z" fill="#f1f2f2"/><path d="M756.9,1.5h17.9l41.3,54.3V1.5h19.2V89.7H818.7L776,33.6V89.7H756.9Z" fill="#f1f2f2"/><path d="M887.8,45.9v-.3c0-25.1,19.8-45.6,47-45.6s46.7,20.3,46.7,45.4v.3c0,25.1-19.8,45.6-47,45.6S887.8,70.9,887.8,45.9Zm73.5,0v-.3c0-15.1-11.1-27.7-26.7-27.7s-26.5,12.3-26.5,27.5v.3c0,15.1,11.1,27.7,26.7,27.7S961.3,61,961.3,45.9Z" fill="#f1f2f2"/><path d="M1034.1,1.5h40.3c11.2,0,19.9,3.2,25.7,8.9s7.6,11.8,7.6,20.2v.3c0,14.2-7.7,23.2-18.9,27.3l21.5,31.5h-22.7l-18.9-28.2h-15.2V89.7h-19.4Zm39.1,42.8c9.5,0,14.9-5,14.9-12.5v-.3c0-8.3-5.8-12.6-15.2-12.6h-19.3V44.4Z" fill="#f1f2f2"/><path d="M1181,19.4h-26.8V1.5h73.1V19.4h-26.8V89.7H1181Z" fill="#f1f2f2"/><path d="M1277.4,1.5h19.4V36.4h35.8V1.5H1352V89.7h-19.4V54.3h-35.8V89.7h-19.4Z" fill="#f1f2f2"/></g></g></svg>